{"title":"The Fighter 2010 SCR XViD - IMAGiNE","uid":6075989,"size":1491392650,"categoryP":"video","categoryS":"movies","magnet":"?xt=urn:btih:9dc775a33cc42fe9b686f3f48da511bba58d735b&amp;dn=The+Fighter+2010+SCR+XViD+-+IMAGiNE&amp;tr=udp%3A%2F%2Ftracker.openbittorrent.com%3A80&amp;tr=udp%3A%2F%2Fopen.demonii.com%3A1337&amp;tr=udp%3A%2F%2Ftracker.coppersurfer.tk%3A6969&amp;tr=udp%3A%2F%2Fexodus.desync.com%3A6969","seeders":0,"leechers":0,"uploader":"neon","files":-1,"time":1293849484,"description":"\nRipper ...........: IMAGiNE IMDB Rating.......:8.5/10\nVideo Codec.......: XVID Release Date......:31/12/10\nAudio Codec.......:MP3 Theatre Date......:17/12/10\nAudio Bitrate.....:192 Runtime.......:1h 51mn\nSubtitles.........:NIL Language..........:ENGLISH\nResolution...... 720 x 304 IMDb URL.......... \n &lt;a href=&quot; http://www.imdb.com/title/tt0964517/&quot; rel=&quot;nofollow&quot; target=&quot;_NEW&quot;&gt; http://www.imdb.com/title/tt0964517/&lt;/a&gt;\n\nDETAILS:\n\nVideo\nID : 0\nFormat : MPEG-4 Visual\nFormat profile : Advanced Simple@L5\nFormat settings, BVOP : Yes\nFormat settings, QPel : No\nFormat settings, GMC : No warppoints\nFormat settings, Matrix : Default (H.263)\nMuxing mode : Packed bitstream\nCodec ID : XVID\nCodec ID/Hint : XviD\nDuration : 1h 51mn\nBit rate : 1 560 Kbps\nWidth : 720 pixels\nHeight : 304 pixels\nDisplay aspect ratio : 2.35:1\nFrame rate : 23.976 fps\nColor space : YUV\nChroma subsampling : 4:2:0\nBit depth : 8 bits\nScan type : Progressive\nBits/(Pixel*Frame) : 0.297\nStream size : 1.21 GiB (89%)\nWriting library : XviD 1.1.2 (UTC 2006-11-01)\n\nAudio\nID : 1\nFormat : MPEG Audio\nFormat version : Version 1\nFormat profile : Layer 3\nCodec ID : 55\nCodec ID/Hint : MP3\nDuration : 1h 51mn\nBit rate mode : Constant\nBit rate : 192 Kbps\nChannel(s) : 2 channels\nSampling rate : 44.1 KHz\nStream size : 153 MiB (11%)\nAlignment : Split accross interleaves\nInterleave, duration : 42 ms (1.00 video frame)\nInterleave, preload duration : 500 ms\n\nSOURCES:\nVIDEO:The fighter.avi ......Thanks LL\nAUDIO:The fighter.avi ......Thanks LL\n\nNOTES:\nIMAGiNE bringing you another release..........The fighter 2010\n\nWell heres a nice new year treat for ya all \nWe were sent a avi file of this so we can only do so much,unless if someone as the source theywant to send it us \nAnyway ....the avi was a tad blurry,had black borders top and bottom and thin down both sides.\nWe've cropped and resized and clean the video up the best we could,but got to so nothing special for a screener but still more than watchable.\nEnjoy folks \n\n","torrent":{"xt":"urn:btih:9dc775a33cc42fe9b686f3f48da511bba58d735b","amp;dn":"The+Fighter+2010+SCR+XViD+-+IMAGiNE","amp;tr":["udp%3A%2F%2Ftracker.openbittorrent.com%3A80","udp%3A%2F%2Fopen.demonii.com%3A1337","udp%3A%2F%2Ftracker.coppersurfer.tk%3A6969","udp%3A%2F%2Fexodus.desync.com%3A6969"],"infoHash":"9dc775a33cc42fe9b686f3f48da511bba58d735b","infoHashBuffer":{"type":"Buffer","data":[157,199,117,163,60,196,47,233,182,134,243,244,141,165,17,187,165,141,115,91]},"announce":[],"urlList":[]}}